HIERARCHY
ROOT Hips
{
	OFFSET 0.000000 0.000000 0.000000
	CHANNELS 6 Xposition Yposition Zposition Zrotation Yrotation Xrotation 
	JOINT LHipJoint
	{
		OFFSET 0.000000 0.000000 0.000000
		CHANNELS 3 Zrotation Yrotation Xrotation
		JOINT LeftUpLeg
		{
			OFFSET 1.363060 -1.794630 0.839290
			CHANNELS 3 Zrotation Yrotation Xrotation
			JOINT LeftLeg
			{
				OFFSET 2.448110 -6.726130 0.000000
				CHANNELS 3 Zrotation Yrotation Xrotation
				JOINT LeftFoot
				{
					OFFSET 2.562200 -7.039590 0.000000
					CHANNELS 3 Zrotation Yrotation Xrotation
					JOINT LeftToeBase
					{
						OFFSET 0.157640 -0.433110 2.322550
						CHANNELS 3 Zrotation Yrotation Xrotation
						End Site
						{
							OFFSET 0.000000 0.000000 0.000000
						}
					}
				}
			}
		}
	}
	JOINT RHipJoint
	{
		OFFSET 0.000000 0.000000 0.000000
		CHANNELS 3 Zrotation Yrotation Xrotation
		JOINT RightUpLeg
		{
			OFFSET -1.305520 -1.794630 0.839290
			CHANNELS 3 Zrotation Yrotation Xrotation
			JOINT RightLeg
			{
				OFFSET -2.542530 -6.985550 0.000000
				CHANNELS 3 Zrotation Yrotation Xrotation
				JOINT RightFoot
				{
					OFFSET -2.568260 -7.056230 0.000000
					CHANNELS 3 Zrotation Yrotation Xrotation
					JOINT RightToeBase
					{
						OFFSET -0.164730 -0.452590 2.363150
						CHANNELS 3 Zrotation Yrotation Xrotation
						End Site
						{
							OFFSET 0.000000 0.000000 0.000000
						}
					}
				}
			}
		}
	}
	JOINT LowerBack
	{
		OFFSET 0.000000 0.000000 0.000000
		CHANNELS 3 Zrotation Yrotation Xrotation
		JOINT Spine
		{
			OFFSET 0.028270 2.035590 -0.193380
			CHANNELS 3 Zrotation Yrotation Xrotation
			JOINT Spine1
			{
				OFFSET 0.056720 2.048850 -0.042750
				CHANNELS 3 Zrotation Yrotation Xrotation
				JOINT Neck
				{
					OFFSET 0.000000 0.000000 0.000000
					CHANNELS 3 Zrotation Yrotation Xrotation
					JOINT Neck1
					{
						OFFSET -0.054170 1.746240 0.172020
						CHANNELS 3 Zrotation Yrotation Xrotation
						JOINT Head
						{
							OFFSET 0.104070 1.761360 -0.123970
							CHANNELS 3 Zrotation Yrotation Xrotation
							End Site
							{
								OFFSET 0.000000 0.000000 0.000000
							}
						}
					}
				}
				JOINT LeftShoulder
				{
					OFFSET 0.000000 0.000000 0.000000
					CHANNELS 3 Zrotation Yrotation Xrotation
					JOINT LeftArm
					{
						OFFSET 3.362410 1.200890 -0.311210
						CHANNELS 3 Zrotation Yrotation Xrotation
						JOINT LeftForeArm
						{
							OFFSET 4.983000 -0.000000 -0.000000
							CHANNELS 3 Zrotation Yrotation Xrotation
							JOINT LeftHand
							{
								OFFSET 3.483560 -0.000000 -0.000000
								CHANNELS 3 Zrotation Yrotation Xrotation
								JOINT LeftFingerBase
								{
									OFFSET 0.000000 0.000000 0.000000
									CHANNELS 3 Zrotation Yrotation Xrotation
									JOINT LeftHandIndex1
									{
										OFFSET 0.715260 -0.000000 -0.000000
										CHANNELS 3 Zrotation Yrotation Xrotation
										End Site
										{
											OFFSET 0.000000 0.000000 0.000000
										}
									}
								}
								JOINT LThumb
								{
									OFFSET 0.000000 0.000000 0.000000
									CHANNELS 3 Zrotation Yrotation Xrotation
									End Site
									{
										OFFSET 0.000000 0.000000 0.000000
									}
								}
							}
						}
					}
				}
				JOINT RightShoulder
				{
					OFFSET 0.000000 0.000000 0.000000
					CHANNELS 3 Zrotation Yrotation Xrotation
					JOINT RightArm
					{
						OFFSET -3.136600 1.374050 -0.404650
						CHANNELS 3 Zrotation Yrotation Xrotation
						JOINT RightForeArm
						{
							OFFSET -5.241900 -0.000000 -0.000000
							CHANNELS 3 Zrotation Yrotation Xrotation
							JOINT RightHand
							{
								OFFSET -3.444170 -0.000000 -0.000000
								CHANNELS 3 Zrotation Yrotation Xrotation
								JOINT RightFingerBase
								{
									OFFSET 0.000000 0.000000 0.000000
									CHANNELS 3 Zrotation Yrotation Xrotation
									JOINT RightHandIndex1
									{
										OFFSET -0.622530 -0.000000 -0.000000
										CHANNELS 3 Zrotation Yrotation Xrotation
										End Site
										{
											OFFSET 0.000000 0.000000 0.000000
										}
									}
								}
								JOINT RThumb
								{
									OFFSET 0.000000 0.000000 0.000000
									CHANNELS 3 Zrotation Yrotation Xrotation
									End Site
									{
										OFFSET 0.000000 0.000000 0.000000
									}
								}
							}
						}
					}
				}
			}
		}
	}
}
MOTION
Frames: 9
Frame Time: 0.008333
-5.697540 17.439326 0.700116 -4.633004 53.659792 -0.152273 5.277147 2.129562 -0.574136 -18.155076 -14.641748 -1.756160 -1.406681 7.258794 20.634629 -0.527782 9.396299 -15.215669 2.174000 -9.219400 -26.484100 -10.782468 -2.561858 -3.228105 26.676509 13.652959 9.491155 2.681511 0.289332 3.600233 0.522444 -13.413357 -7.942427 -1.249900 7.088300 -19.977200 1.310810 0.428025 4.213590 1.003422 0.908354 -3.996415 -2.070193 0.026657 -1.730232 -1.031654 -1.808579 -18.514775 6.218320 -2.346061 17.342311 0.919900 -0.202400 15.180600 2.583229 -0.784780 -0.782374 -88.529573 7.564085 25.547324 17.079979 -24.867110 -4.763917 -0.042080 -1.603678 -33.378643 34.842500 55.028240 30.743300 -7.125000 0.000000 0.000000 174.983600 1.124800 4.936000 -3.491158 1.274427 -1.037713 87.230422 -8.207270 20.793637 -18.172114 30.191926 -5.118675 0.497558 -0.373786 1.134057 -19.967771 18.889521 -7.004200 7.125000 0.000000 0.000000 5.035700 -9.638200 4.137900 
-5.704835 17.443861 0.717171 -4.592403 53.754374 -0.063018 5.271751 2.123726 -0.577448 -18.067822 -14.471107 -1.949437 -1.385404 7.283202 20.692084 -0.504001 9.152506 -15.031660 2.530200 -9.892600 -28.629700 -10.784696 -2.564137 -3.227971 26.701938 13.577140 9.442164 2.683104 0.285693 3.600212 0.520263 -13.408948 -8.016113 -1.262200 7.121700 -20.076500 1.259329 0.400880 4.145138 1.012558 0.868044 -3.993428 -2.017416 0.007202 -1.675652 -1.050041 -1.781681 -18.584389 6.179749 -2.296595 17.349975 0.905000 -0.189100 15.201500 2.593159 -0.788507 -0.783771 -88.668205 7.414894 25.838375 17.479380 -25.367852 -4.938247 -0.038607 -1.597826 -33.644098 35.209681 54.873525 31.034600 -7.125000 0.000000 0.000000 175.161900 1.082200 4.762900 -3.485024 1.270265 -1.033033 87.212598 -8.140773 20.066948 -17.653433 29.546363 -4.866064 0.501369 -0.361145 1.490672 -20.194934 18.376489 -6.904000 7.125000 0.000000 0.000000 4.848300 -10.160000 3.931500 
-5.711440 17.444650 0.736394 -4.711184 53.819700 -0.147361 5.267780 2.125639 -0.577240 -17.889119 -14.287670 -2.088377 -1.362696 7.298790 20.745058 -0.482940 8.928236 -14.876466 2.495500 -9.829700 -28.426900 -10.798869 -2.565311 -3.230117 26.859143 13.510728 9.443890 2.685712 0.281117 3.600386 0.517550 -13.403554 -7.972328 -1.298400 7.219000 -20.365900 1.295168 0.376916 4.113693 1.033558 0.834403 -3.993597 -1.995509 -0.008188 -1.660859 -0.909153 -1.705215 -18.549366 6.035254 -2.235166 17.280362 0.782600 -0.166100 15.139500 2.618117 -0.802859 -0.780685 -88.758597 7.359892 26.053047 17.906286 -25.902931 -5.128934 -0.031955 -1.586669 -33.842625 35.080012 54.764348 30.875500 -7.125000 0.000000 0.000000 175.154400 0.943200 4.782400 -3.465113 1.251655 -1.030559 87.185448 -8.126950 19.493390 -17.122697 28.875807 -4.609355 0.503257 -0.358785 1.959773 -20.338903 18.304588 -6.929400 7.125000 0.000000 0.000000 4.746100 -10.223200 3.842000 
-5.716270 17.442579 0.755518 -4.843452 53.838974 -0.277919 5.266876 2.134985 -0.574404 -17.727226 -14.105372 -2.143466 -1.348124 7.299478 20.767461 -0.475688 8.817826 -14.773186 2.563800 -9.953000 -28.824700 -10.812277 -2.565514 -3.232923 27.033298 13.471270 9.493656 2.689275 0.279226 3.601094 0.515262 -13.400561 -7.933272 -1.318300 7.272100 -20.524100 1.342193 0.381303 4.101127 1.046764 0.840636 -3.996580 -1.972321 -0.005811 -1.665151 -0.898003 -1.699330 -18.512694 6.017253 -2.228156 17.308657 0.770600 -0.161400 15.147800 2.632194 -0.800054 -0.781128 -88.810874 7.412793 26.367247 18.411975 -26.527369 -5.359478 -0.023400 -1.573920 -34.065115 34.919383 54.664147 30.689100 -7.125000 0.000000 0.000000 175.132700 0.803800 4.816000 -3.457318 1.245946 -1.027453 87.169844 -8.174399 18.951515 -16.601258 28.213770 -4.363254 0.502365 -0.360323 2.356160 -20.290292 18.410347 -6.949000 7.125000 0.000000 0.000000 4.783700 -10.121500 3.882500 
-5.722382 17.441988 0.771784 -4.735779 53.882887 -0.202191 5.266860 2.141105 -0.571074 -17.728188 -13.966231 -2.199874 -1.340680 7.304661 20.782467 -0.473315 8.757444 -14.669884 2.662200 -10.127000 -29.389100 -10.809675 -2.566672 -3.236937 27.024015 13.413514 9.519780 2.689170 0.281717 3.605139 0.515465 -13.398802 -7.953683 -1.313200 7.258600 -20.483800 1.249741 0.384607 4.097047 1.029764 0.846845 -4.005225 -1.896860 -0.008766 -1.655656 -1.308959 -1.898120 -18.713696 6.367212 -2.360974 17.595445 1.091700 -0.212700 15.412000 2.600411 -0.758726 -0.795641 -88.850181 7.370930 26.701382 18.916567 -27.129474 -5.597235 -0.012528 -1.569708 -34.232914 35.090429 54.811897 30.885400 -7.125000 0.000000 0.000000 175.134600 0.988200 4.798200 -3.492053 1.290118 -1.019122 87.204959 -8.199124 18.243505 -16.093445 27.566606 -4.131387 0.501547 -0.359322 2.730014 -20.249157 18.376965 -6.921200 7.125000 0.000000 0.000000 4.807200 -10.166700 3.897300 
-5.730860 17.442481 0.787163 -4.642733 53.990822 -0.136023 5.265885 2.144304 -0.568689 -17.718612 -13.910065 -2.252960 -1.336358 7.306311 20.781221 -0.471059 8.690830 -14.550877 2.728000 -10.241100 -29.761000 -10.808358 -2.570192 -3.246919 27.016295 13.294943 9.531554 2.688665 0.282845 3.611220 0.516046 -13.402407 -7.962533 -1.321200 7.279800 -20.547000 1.170070 0.375547 4.105820 1.017208 0.836323 -3.996091 -1.833801 -0.018354 -1.606189 -1.632497 -2.037866 -18.914073 6.643403 -2.445905 17.722495 1.341800 -0.251500 15.561700 2.576461 -0.732868 -0.801646 -88.888247 7.192521 26.973907 19.393643 -27.693401 -5.830665 0.000506 -1.568622 -34.274987 35.248962 55.187391 31.136900 -7.125000 0.000000 0.000000 175.050100 1.379600 4.847600 -3.519726 1.323740 -1.006348 87.237109 -8.125622 17.436958 -15.598646 26.921588 -3.910541 0.501805 -0.353898 3.149754 -20.290856 18.126105 -6.844700 7.125000 0.000000 0.000000 4.760900 -10.433600 3.833600 
-5.740127 17.443171 0.801851 -4.697322 54.120530 -0.198051 5.263182 2.149329 -0.566232 -17.602633 -13.791167 -2.340263 -1.325652 7.304981 20.781132 -0.458961 8.536102 -14.406540 2.751300 -10.281100 -29.891900 -10.814797 -2.573882 -3.257527 27.106192 13.154798 9.542769 2.690098 0.280761 3.616184 0.514389 -13.399573 -7.959698 -1.332800 7.310500 -20.638700 1.198208 0.362112 4.124779 1.018397 0.821470 -3.983249 -1.824098 -0.028167 -1.542691 -1.710223 -2.065780 -19.153070 6.705664 -2.453978 17.793557 1.408600 -0.254900 15.681000 2.572967 -0.729678 -0.804346 -88.873713 7.013599 27.311105 19.849355 -28.227474 -6.055523 0.009475 -1.561544 -34.314986 35.133156 55.366647 31.074500 -7.125000 0.000000 0.000000 174.944100 1.511100 4.940300 -3.527933 1.335615 -1.000432 87.251531 -8.046547 16.694435 -15.141617 26.314445 -3.708900 0.500856 -0.355505 3.512181 -20.257560 18.202242 -6.859600 7.125000 0.000000 0.000000 4.786900 -10.360300 3.861800 
-5.750675 17.442974 0.816047 -4.777455 54.259773 -0.296513 5.258418 2.154667 -0.561418 -17.466644 -13.636911 -2.449391 -1.307051 7.317054 20.822007 -0.446198 8.366661 -14.243468 2.836000 -10.424800 -30.363500 -10.820769 -2.579673 -3.263992 27.212864 13.002731 9.563881 2.693706 0.279292 3.621027 0.511900 -13.398118 -8.032781 -1.282400 7.176200 -20.238600 1.236531 0.336884 4.172509 1.029718 0.790252 -3.989052 -1.829031 -0.043525 -1.537675 -1.566877 -2.012168 -19.396605 6.572358 -2.418437 17.859632 1.305900 -0.233600 15.801700 2.585867 -0.746000 -0.809164 -88.842107 6.867849 27.633679 20.218520 -28.654803 -6.237989 0.012025 -1.550206 -34.399981 34.857655 55.265281 30.783300 -7.125000 0.000000 0.000000 174.887400 1.338400 5.011900 -3.516909 1.333512 -1.003321 87.266581 -8.074313 16.119846 -14.727845 25.752142 -3.526092 0.499830 -0.365331 3.850872 -20.228434 18.653073 -7.011000 7.125000 0.000000 0.000000 4.835700 -9.885800 3.948200 
-5.762800 17.441002 0.832411 -4.953804 54.417303 -0.498895 5.253689 2.164070 -0.553524 -17.263578 -13.554522 -2.534210 -1.282373 7.339906 20.898327 -0.431016 8.185870 -14.107286 2.924700 -10.572100 -30.850100 -10.831458 -2.584095 -3.277378 27.398635 12.808778 9.627648 2.698584 0.278146 3.628169 0.507579 -13.384177 -8.096921 -1.240000 7.061100 -19.896500 1.285195 0.292681 4.240700 1.054929 0.733983 -3.985142 -1.763315 -0.072603 -1.585719 -1.727523 -2.056443 -19.193530 6.656091 -2.431467 17.723040 1.377100 -0.257800 15.644300 2.592074 -0.743133 -0.801736 -88.878787 6.755196 27.905678 20.560592 -29.046422 -6.405526 0.012664 -1.540679 -34.694640 35.009503 54.952852 30.829400 -7.125000 0.000000 0.000000 175.049200 1.088900 4.874200 -3.514076 1.339100 -0.988713 87.258032 -8.185391 15.683936 -14.378752 25.278459 -3.375760 0.502479 -0.367995 4.197290 -20.387117 18.795083 -7.120700 7.125000 0.000000 0.000000 4.739300 -9.716500 3.885100 
